<svg xmlns="http://www.w3.org/2000/svg" xmlns:xlink="http://www.w3.org/1999/xlink" viewBox="0 0 113.04 151.03"><defs><style>.cls-1{fill:url(#linear-gradient);}.cls-2,.cls-3,.cls-5{fill:none;stroke:#fff;stroke-miterlimit:10;}.cls-2{stroke-width:1.48px;}.cls-4{fill:url(#linear-gradient-2);}.cls-5{stroke-width:0.84px;opacity:0.87;}.cls-6{font-size:14.41px;fill:#fff;font-family:IRANSans;}</style><linearGradient id="linear-gradient" x1="31.97" y1="56.52" x2="107.86" y2="56.52" gradientTransform="translate(-12.27 100.76) rotate(-90)" gradientUnits="userSpaceOnUse"><stop offset="0" stop-color="#f77900"/><stop offset="0.42" stop-color="#f77b00"/><stop offset="0.58" stop-color="#f88200"/><stop offset="0.69" stop-color="#f88d00"/><stop offset="0.77" stop-color="#f99e00"/><stop offset="0.85" stop-color="#fbb400"/><stop offset="0.92" stop-color="#fcd000"/><stop offset="0.97" stop-color="#feef00"/><stop offset="1" stop-color="#ff0"/></linearGradient><linearGradient id="linear-gradient-2" x1="0" y1="56.52" x2="155.32" y2="56.52" gradientTransform="matrix(1, 0, 0, 1, 0, 0)" xlink:href="#linear-gradient"/></defs><g id="Layer_2" data-name="Layer 2"><g id="app"><rect class="cls-1" x="32.35" y="44.24" width="23.79" height="24.55" rx="1.02" transform="translate(100.76 12.27) rotate(90)"/><path class="cls-2" d="M81.7,47.26a3.59,3.59,0,0,1,3.6,3.6V62.18a3.6,3.6,0,0,1-3.6,3.6"/><rect class="cls-3" x="27.74" y="40.62" width="53.96" height="31.8" rx="1.05"/><path class="cls-4" d="M56.52,113A56.52,56.52,0,1,1,113,56.52,56.58,56.58,0,0,1,56.52,113Zm0-109.67a53.15,53.15,0,1,0,53.15,53.15A53.21,53.21,0,0,0,56.52,3.37Z"/><circle class="cls-5" cx="56.52" cy="56.52" r="47.87"/><text class="cls-6" transform="translate(31.97 141.11)">Battery</text></g></g></svg>