<svg xmlns="http://www.w3.org/2000/svg" viewBox="0 0 113.04 159.56"><defs><style>.cls-1,.cls-3{fill:#fff;}.cls-2{fill:none;stroke:#fff;stroke-miterlimit:10;stroke-width:0.63px;}.cls-3{font-size:14.41px;font-family:IRANSans;}.cls-4{font-size:13px;}</style></defs><g id="Layer_2" data-name="Layer 2"><g id="app"><g id="Bluetooth_disconnect" data-name="Bluetooth disconnect"><path class="cls-1" d="M69.21,48.79,56.52,36.1H54.3V53L44.1,42.76,41,45.9,53.38,58.32,41,70.74l3.14,3.14,10.2-10.2V80.54h2.22L69.21,67.85l-9.56-9.53ZM58.74,44.61l4.18,4.18L58.74,53Zm4.18,23.24L58.74,72V63.68Z"/><path class="cls-1" d="M56.52,113A56.52,56.52,0,1,1,113,56.52,56.58,56.58,0,0,1,56.52,113Zm0-109.67a53.15,53.15,0,1,0,53.15,53.15A53.21,53.21,0,0,0,56.52,3.37Z"/><circle class="cls-2" cx="56.52" cy="56.52" r="47.87"/><text class="cls-3" transform="translate(23.2 135.01)">Bluetooth<tspan class="cls-4"><tspan x="-8.67" y="15.6">disconnected</tspan></tspan></text></g></g></g></svg>