<svg xmlns="http://www.w3.org/2000/svg" xmlns:xlink="http://www.w3.org/1999/xlink" viewBox="0 0 113.04 166.45"><defs><style>.cls-1{fill:url(#linear-gradient);}.cls-2{fill:url(#linear-gradient-2);}.cls-3{fill:none;stroke:#fff;stroke-miterlimit:10;stroke-width:0.63px;}.cls-4{font-size:14.41px;fill:#fff;font-family:IRANSans;}.cls-5{font-size:13px;}</style><linearGradient id="linear-gradient" x1="36.52" y1="58.32" x2="76.52" y2="58.32" gradientUnits="userSpaceOnUse"><stop offset="0" stop-color="#0054ff"/><stop offset="0.23" stop-color="#08f"/><stop offset="0.48" stop-color="#0bf"/><stop offset="0.71" stop-color="#00e0ff"/><stop offset="0.89" stop-color="#00f7ff"/><stop offset="1" stop-color="aqua"/></linearGradient><linearGradient id="linear-gradient-2" x1="27.44" y1="39.2" x2="124.54" y2="97.03" xlink:href="#linear-gradient"/></defs><g id="Layer_2" data-name="Layer 2"><g id="app"><g id="Bluetooth_connected" data-name="Bluetooth connected"><path class="cls-1" d="M45.41,58.32,41,53.88l-4.44,4.44L41,62.77Zm23.8-9.53L56.52,36.1H54.3V53L44.1,42.76,41,45.9,53.38,58.32,41,70.74l3.14,3.14,10.2-10.2V80.54h2.22L69.21,67.85l-9.56-9.53ZM58.74,44.61l4.18,4.18L58.74,53Zm4.18,23.24L58.74,72V63.68Zm9.16-14-4.45,4.44,4.45,4.45,4.44-4.45Z"/><path class="cls-2" d="M56.52,113A56.52,56.52,0,1,1,113,56.52,56.58,56.58,0,0,1,56.52,113Zm0-109.67a53.15,53.15,0,1,0,53.15,53.15A53.21,53.21,0,0,0,56.52,3.37Z"/><circle class="cls-3" cx="56.52" cy="56.52" r="47.87"/><text class="cls-4" transform="translate(23.2 141.9)">Bluetooth<tspan class="cls-5"><tspan x="0.59" y="15.6">connected</tspan></tspan></text></g></g></g></svg>