<svg xmlns="http://www.w3.org/2000/svg" viewBox="0 0 34.65 29.64"><defs><style>.cls-1{fill:none;stroke:#ff0;stroke-linecap:round;stroke-miterlimit:10;}.cls-2,.cls-3{fill:#ff0;}.cls-2{opacity:0.1;}.cls-3{opacity:0.18;}</style></defs><g id="Layer_2" data-name="Layer 2"><g id="app"><line class="cls-1" x1="17.65" y1="0.5" x2="21.89" y2="0.5"/><path class="cls-2" d="M34.65,22.61c0,3.64-2.37,6.6-5.28,6.6H5.28c-2.92,0-5.28-3-5.28-6.6S2.36,16,5.28,16a4.59,4.59,0,0,1,3.17,1.31A4.55,4.55,0,0,1,11.61,16a3.94,3.94,0,0,1,.6,0c.58-5,4.05-8.9,8.23-8.9s7.67,3.88,8.24,8.92a3.16,3.16,0,0,1,.69-.06C32.28,16,34.65,19,34.65,22.61Z"/><path class="cls-3" d="M19.77,6.8h0a5.3,5.3,0,0,1,5.3,5.3V27.84a1.81,1.81,0,0,1-1.81,1.81h-7a1.81,1.81,0,0,1-1.81-1.81V12.1a5.3,5.3,0,0,1,5.3-5.3Z"/><line class="cls-1" x1="19.77" y1="3.41" x2="22.14" y2="3.41"/><line class="cls-1" x1="17.39" y1="5.31" x2="19.77" y2="5.31"/><line class="cls-1" x1="19.77" y1="0.89" x2="19.77" y2="6.8"/></g></g></svg>