<svg xmlns="http://www.w3.org/2000/svg" viewBox="0 0 33.3 39.41"><defs><style>.cls-1{fill:none;stroke:red;stroke-miterlimit:10;stroke-width:1.15px;}.cls-2{opacity:0.17;}.cls-3{fill:red;}.cls-4{opacity:0.86;}</style></defs><g id="Layer_2" data-name="Layer 2"><g id="app"><g id="Heart_icon" data-name="Heart icon"><path class="cls-1" d="M30.68,20.41a7.18,7.18,0,0,1-3.42-.91c-2.52-1.69-2.72-4.44-.68-6.58s6.14-3.21,6.14-3.21V5.44l-1.45.44a36.38,36.38,0,0,0-18,12.39h0"/><path class="cls-1" d="M12.06,10.3V7.58A2.14,2.14,0,0,1,14.2,5.44h3.94V7.87"/><path class="cls-1" d="M18.14,7.87V2.4A1.82,1.82,0,0,1,20,.57h0A1.82,1.82,0,0,1,21.78,2.4V9.08"/><path class="cls-1" d="M21.78,9.08V4.83A1.82,1.82,0,0,1,23.61,3h0a1.82,1.82,0,0,1,1.82,1.82v3"/><path class="cls-1" d="M28,12.06A11.53,11.53,0,0,1,31,18.27c.7,4.22,5.7,13.91-5.34,13.91-5.9,0-16-5.35-16-13.91a9.24,9.24,0,0,1,9.61-9.63,14.22,14.22,0,0,1,4.29.64"/><g class="cls-2"><path class="cls-3" d="M30.68,20.41a7.18,7.18,0,0,1-3.42-.91c-2.52-1.69-2.72-4.44-.68-6.58s6.14-3.21,6.14-3.21V5.44l-1.45.44a36.38,36.38,0,0,0-18,12.39h0"/><path class="cls-3" d="M12.06,10.3V7.58A2.14,2.14,0,0,1,14.2,5.44h3.94V7.87"/><path class="cls-3" d="M18.14,7.87V2.4A1.82,1.82,0,0,1,20,.57h0A1.82,1.82,0,0,1,21.78,2.4V9.08"/><path class="cls-3" d="M21.78,9.08V4.83A1.82,1.82,0,0,1,23.61,3h0a1.82,1.82,0,0,1,1.82,1.82v3"/><path class="cls-3" d="M28,12.06A11.53,11.53,0,0,1,31,18.27c.7,4.22,5.7,13.91-5.34,13.91-5.9,0-16-5.35-16-13.91a9.24,9.24,0,0,1,9.61-9.63,14.22,14.22,0,0,1,4.29.64"/></g><g class="cls-4"><polygon class="cls-3" points="0 36.38 9.9 36.13 9.68 36.27 11.44 32.77 11.71 32.23 11.9 32.8 13.85 38.55 13.38 38.55 15.25 32.88 15.44 32.33 15.71 32.84 17.53 36.26 17.31 36.13 23.53 36.38 17.31 36.63 17.16 36.63 17.09 36.49 15.27 33.08 15.73 33.04 13.86 38.7 13.62 39.41 13.38 38.71 11.43 32.96 11.89 32.99 10.13 36.49 10.06 36.63 9.9 36.63 0 36.38"/></g></g></g></g></svg>