<svg xmlns="http://www.w3.org/2000/svg" xmlns:xlink="http://www.w3.org/1999/xlink" viewBox="0 0 113.04 167.65"><defs><style>.cls-1{fill:url(#linear-gradient);}.cls-2{fill:none;stroke:#fff;stroke-miterlimit:10;stroke-width:0.63px;}.cls-3{font-size:14.41px;fill:#fff;font-family:IRANSans;}.cls-4{fill:url(#linear-gradient-2);}.cls-5{fill:url(#linear-gradient-3);}</style><linearGradient id="linear-gradient" x1="-54.67" y1="56.52" x2="133.03" y2="56.52" gradientUnits="userSpaceOnUse"><stop offset="0.02" stop-color="#ff0040"/><stop offset="0.28" stop-color="#fd0a3f"/><stop offset="0.71" stop-color="#f7233b"/><stop offset="1" stop-color="#f33838"/></linearGradient><linearGradient id="linear-gradient-2" x1="43.14" y1="62.82" x2="69.89" y2="62.82" xlink:href="#linear-gradient"/><linearGradient id="linear-gradient-3" x1="50.92" y1="27.96" x2="62.11" y2="27.96" xlink:href="#linear-gradient"/></defs><g id="Layer_2" data-name="Layer 2"><g id="buttons_mods" data-name="buttons mods"><g id="Motionless_mode" data-name="Motionless mode"><path class="cls-1" d="M56.52,113A56.52,56.52,0,1,1,113,56.52,56.58,56.58,0,0,1,56.52,113Zm0-109.67a53.15,53.15,0,1,0,53.15,53.15A53.21,53.21,0,0,0,56.52,3.37Z"/><circle class="cls-2" cx="56.52" cy="56.52" r="47.87"/><text class="cls-3" transform="translate(18.62 140.44)">Motionless</text><path class="cls-4" d="M49.26,43.9H48V59.26a2.46,2.46,0,0,1-1.8,2.59,2.4,2.4,0,0,1-3.07-2.39c0-3.16,0-6.33,0-9.49,0-2.55,0-5.1,0-7.65A7.12,7.12,0,0,1,50.31,35q6.25-.07,12.5,0a7.1,7.1,0,0,1,7.07,7.14c0,5.78,0,11.57,0,17.35a2.4,2.4,0,0,1-2,2.43,2.44,2.44,0,0,1-2.68-1.49A4.09,4.09,0,0,1,65,59.08c0-4.83,0-9.66,0-14.49V43.9H63.76V87.22a3.27,3.27,0,0,1-3.67,3.42,3.21,3.21,0,0,1-2.87-3.07c0-1.83,0-3.67,0-5.51V62.15H55.84v25a3.29,3.29,0,1,1-6.56.18q0-5.37,0-10.76,0-16.1,0-32.19Z"/><path class="cls-5" d="M62.11,28a5.6,5.6,0,1,1-5.54-5.61A5.62,5.62,0,0,1,62.11,28Z"/></g></g></g></svg>