<svg xmlns="http://www.w3.org/2000/svg" viewBox="0 0 113.04 153.23"><defs><style>.cls-1,.cls-3{opacity:0.23;}.cls-2,.cls-5{fill:#fff;}.cls-3{fill:none;stroke:#fff;stroke-miterlimit:10;stroke-width:0.84px;}.cls-4{opacity:0.5;}.cls-5{font-size:14.41px;font-family:IRANSans;}</style></defs><g id="Layer_2" data-name="Layer 2"><g id="buttons_mods" data-name="buttons mods"><g id="free_fall" data-name="free fall"><g class="cls-1"><path class="cls-2" d="M56.52,113A56.52,56.52,0,1,1,113,56.52,56.58,56.58,0,0,1,56.52,113Zm0-109.67a53.15,53.15,0,1,0,53.15,53.15A53.21,53.21,0,0,0,56.52,3.37Z"/></g><circle class="cls-3" cx="56.52" cy="56.52" r="47.87"/><g class="cls-1"><path class="cls-2" d="M65.67,64.86l-7.14-5c1.16-2,2.35-3.88,3.36-5.84a7.39,7.39,0,0,0,.85-3c.1-3.05,0-6.1,0-9.14a2.18,2.18,0,0,0-2.44-2.39c-1.94,0-2.88.71-2.89,2.36,0,2.85,0,5.69,0,8.53a2.15,2.15,0,0,1-.14,1c-1.68,3-3.4,5.91-5.19,9-.37-.89-.67-1.73-1.05-2.53-.73-1.53-1.46-3.06-2.28-4.54a2.76,2.76,0,0,0-1.18-.93q-3.87-2-7.76-4c-1.59-.81-2.63-.46-3.44,1.13-.92,1.79-.65,2.75,1,3.62,2.25,1.16,4.52,2.27,6.75,3.47a2.74,2.74,0,0,1,1.1,1.21c.85,1.91,1.69,3.82,2.35,5.79a7,7,0,0,0,2.91,3.66C54,69.67,57.41,72.11,61,74.65c-1.79.84-3.46,1.65-5.15,2.39-.19.08-.56-.16-.8-.32-1.8-1.24-3.59-2.51-5.39-3.76s-2.69-1-3.86.65-.83,2.58.86,3.76c2.19,1.53,4.43,3,6.54,4.61a3.43,3.43,0,0,0,3.82.41q4.31-2,8.54-4a3.24,3.24,0,0,0,1.09-1c1.46-2.08,2.93-4.15,4.31-6.29A3.62,3.62,0,0,0,71.55,69c-.2-2.34-.59-4.68-.84-7a1.91,1.91,0,0,1,.34-1.28c1.55-2,3.17-4,4.76-5.93a2.15,2.15,0,0,0-.33-3.38c-1.56-1.31-2.64-1.36-3.71-.06-2.08,2.5-4.14,5-6.14,7.58a2.78,2.78,0,0,0-.42,1.72C65.27,62,65.49,63.3,65.67,64.86Z"/><path class="cls-2" d="M73.78,72a5.42,5.42,0,0,0,0,10.84,5.42,5.42,0,1,0,0-10.84Z"/></g><g class="cls-1"><path class="cls-2" d="M79.09,47c.18,2.14.26,4.28.33,6.42s.06,4.27.09,6.41,0,4.28-.09,6.41-.15,4.28-.33,6.42c-.17-2.14-.25-4.28-.32-6.42s-.06-4.27-.1-6.41,0-4.28.1-6.41S78.92,49.16,79.09,47Z"/></g><g class="cls-4"><text class="cls-5" transform="translate(29.05 143.31)">Free fall</text></g><g class="cls-1"><path class="cls-2" d="M43.38,33.3c.17,2.14.25,4.28.32,6.42s.06,4.27.1,6.41,0,4.28-.1,6.42-.15,4.27-.32,6.41c-.18-2.14-.26-4.28-.32-6.41S43,48.27,43,46.13s0-4.28.1-6.41S43.21,35.44,43.38,33.3Z"/></g><g class="cls-1"><path class="cls-2" d="M55.17,30.38c.14,1.36.21,2.72.26,4.08s0,2.72.08,4.09,0,2.72-.08,4.08-.12,2.72-.26,4.08C55,45.35,55,44,54.91,42.63s0-2.72-.07-4.08,0-2.73.07-4.09S55,31.74,55.17,30.38Z"/></g></g></g></g></svg>