<svg xmlns="http://www.w3.org/2000/svg" viewBox="0 0 26.42 50.36"><defs><style>.cls-1{fill:#a00;opacity:0.39;}.cls-2{fill:red;}.cls-3,.cls-4{fill:none;stroke:#b3b3b3;stroke-miterlimit:10;}.cls-4{stroke-linecap:round;}</style></defs><g id="Layer_2" data-name="Layer 2"><g id="app"><path class="cls-1" d="M25.91,41.72A8.61,8.61,0,1,1,11.28,35.1a2.73,2.73,0,0,0,.83-1.94V15.44H22.52V21.8h0V33.16a2.74,2.74,0,0,0,.85,2A8.62,8.62,0,0,1,25.91,41.72Z"/><path class="cls-2" d="M0,13.34l3.62,2.25L0,17.86Z"/><path class="cls-3" d="M25.91,41.72A8.61,8.61,0,1,1,11.28,35.1a2.73,2.73,0,0,0,.83-1.94V5.83A5.29,5.29,0,0,1,17.24.5,5.19,5.19,0,0,1,22.5,5.7V33.16a2.74,2.74,0,0,0,.85,2A8.63,8.63,0,0,1,25.91,41.72Z"/><line class="cls-4" x1="9.17" y1="33.4" x2="4.78" y2="33.4"/><line class="cls-4" x1="9.17" y1="19.92" x2="4.78" y2="19.92"/><line class="cls-4" x1="9.17" y1="5.06" x2="4.78" y2="5.06"/><line class="cls-4" x1="9.17" y1="12.49" x2="6.73" y2="12.49"/><line class="cls-4" x1="9.17" y1="26.66" x2="6.73" y2="26.66"/></g></g></svg>