<svg xmlns="http://www.w3.org/2000/svg" viewBox="0 0 30.09 33.52"><defs><style>.cls-1{fill:none;stroke:#fff;stroke-miterlimit:10;}.cls-2{fill:#fff;opacity:0.14;}</style></defs><g id="Layer_2" data-name="Layer 2"><g id="app"><g id="Situation_NORMAL" data-name="Situation NORMAL"><path class="cls-1" d="M15,.5a14.53,14.53,0,0,0-3.73,28.58L15,32.82l3.74-3.74A14.53,14.53,0,0,0,15,.5Zm0,3.23A4.85,4.85,0,1,1,10.2,8.58,4.84,4.84,0,0,1,15,3.73Zm0,23.11a11.63,11.63,0,0,1-9.69-5.2c.05-3.22,6.46-5,9.69-5s9.65,1.76,9.7,5A11.66,11.66,0,0,1,15,26.84Z"/><path class="cls-2" d="M15,.5a14.53,14.53,0,0,0-3.73,28.58L15,32.82l3.74-3.74A14.53,14.53,0,0,0,15,.5Zm0,3.23A4.85,4.85,0,1,1,10.2,8.58,4.84,4.84,0,0,1,15,3.73Zm0,23.11a11.63,11.63,0,0,1-9.69-5.2c.05-3.22,6.46-5,9.69-5s9.65,1.76,9.7,5A11.66,11.66,0,0,1,15,26.84Z"/></g></g></g></svg>