<svg xmlns="http://www.w3.org/2000/svg" xmlns:xlink="http://www.w3.org/1999/xlink" viewBox="0 0 113.04 153.23"><defs><style>.cls-1{fill:url(#linear-gradient);}.cls-2{fill:none;stroke:#fff;stroke-miterlimit:10;stroke-width:0.63px;}.cls-3{fill:url(#linear-gradient-2);}.cls-4{font-size:14.41px;fill:#fff;font-family:IRANSans;}</style><linearGradient id="linear-gradient" x1="-16.87" y1="56.52" x2="170.83" y2="56.52" gradientUnits="userSpaceOnUse"><stop offset="0.02" stop-color="#45ffc1"/><stop offset="0.07" stop-color="#3cffb6"/><stop offset="0.22" stop-color="#27ff99"/><stop offset="0.38" stop-color="#16ff82"/><stop offset="0.55" stop-color="#09ff72"/><stop offset="0.74" stop-color="#02ff69"/><stop offset="1" stop-color="#0f6"/></linearGradient><linearGradient id="linear-gradient-2" x1="20.87" y1="55.52" x2="60.19" y2="55.52" xlink:href="#linear-gradient"/></defs><g id="Layer_2" data-name="Layer 2"><g id="app"><g id="walking"><path class="cls-1" d="M56.52,113A56.52,56.52,0,1,1,113,56.52,56.58,56.58,0,0,1,56.52,113Zm0-109.67a53.15,53.15,0,1,0,53.15,53.15A53.21,53.21,0,0,0,56.52,3.37Z"/><circle class="cls-2" cx="56.52" cy="56.52" r="47.87"/><path class="cls-3" d="M61.56,35.11a6,6,0,1,0-6.05-6.05A6.08,6.08,0,0,0,61.56,35.11ZM50.37,45.39,41.9,88h6.35l5.44-24.2,6.35,6V88h6.05V65.35l-6.35-6,1.82-9.07a22.13,22.13,0,0,0,16.63,7.56v-6a14.85,14.85,0,0,1-13-7.26l-3-4.84a6.24,6.24,0,0,0-5.14-3c-.91,0-1.51.3-2.42.3L38.87,43.57V57.79h6.05V47.51l5.45-2.12"/><text class="cls-4" transform="translate(29.05 143.31)">Walking</text></g></g></g></svg>