<?xml version="1.0" encoding="utf-8"?><!-- Uploaded to: SVG Repo, www.svgrepo.com, Generator: SVG Repo Mixer Tools -->
<svg width="800px" height="800px" viewBox="0 0 24 24" fill="none" xmlns="http://www.w3.org/2000/svg">
<path d="M8.46447 15.5355C6.51184 13.5829 6.51184 10.4171 8.46447 8.46447M12 7C13.2796 7 14.5592 7.48816 15.5355 8.46447C16.5118 9.44078 17 10.7204 17 12M5.63604 18.364C2.12132 14.8492 2.12132 9.15076 5.63604 5.63604M8.64587 3.64587C11.8893 2.34541 15.7367 3.0088 18.364 5.63604C20.9912 8.26328 21.6546 12.1107 20.3541 15.3541M4 3.99992L11.2929 11.2929M20 19.9999L12.7071 12.7071M11.2929 11.2929C11.1119 11.4738 11 11.7238 11 12C11 12.5523 11.4477 13 12 13C12.2762 13 12.5262 12.8881 12.7071 12.7071M11.2929 11.2929L12.7071 12.7071" stroke="#000000" stroke-width="2" stroke-linecap="round" stroke-linejoin="round"/>
</svg>